<?xml version="1.0" encoding="UTF-8" standalone="no"?><!DOCTYPE svg PUBLIC "-//W3C//DTD SVG 1.1//EN" "http://www.w3.org/Graphics/SVG/1.1/DTD/svg11.dtd"><svg width="100%" height="100%" viewBox="0 0 1692 705" version="1.1" xmlns="http://www.w3.org/2000/svg" xmlns:xlink="http://www.w3.org/1999/xlink" xml:space="preserve" xmlns:serif="http://www.serif.com/" style="fill-rule:evenodd;clip-rule:evenodd;stroke-linejoin:round;stroke-miterlimit:2;"><rect id="Artboard1" x="0" y="0" width="1691.667" height="704.167" style="fill:none;"/><g><path d="M117.238,210.343l0,-161.207c0,-14.199 -11.506,-25.711 -25.694,-25.711l-54.398,0c-14.182,0 -25.688,11.512 -25.688,25.711l0,258.575c25.733,-41.261 62.324,-75.054 105.781,-97.369" style="fill:#32716d;fill-rule:nonzero;"/></g><g><path d="M11.5,443.572l-0.045,0l0,6.524c0,-1.486 0.017,-2.972 0.045,-4.457c-0.017,-0.24 -0.017,-0.464 -0.028,-0.698c0.011,-0.464 0.011,-0.91 0.028,-1.368" style="fill:#32716d;fill-rule:nonzero;"/></g><g><path d="M468.887,450.096c0,-126.33 -102.424,-228.72 -228.737,-228.72c-40.457,0 -78.456,10.512 -111.433,28.945c-0.011,0 -0.028,0.017 -0.045,0.034c-3.195,1.782 -6.345,3.642 -9.456,5.586l-1.977,1.251l-2.703,1.754c-2.307,1.514 -4.58,3.061 -6.826,4.67l-29.274,24.755c-5.826,5.809 -11.328,11.953 -16.5,18.371c-0.581,0.732 -1.151,1.447 -1.743,2.173c-1.117,1.43 -2.217,2.888 -3.318,4.34c0,0 -0.011,0.017 -0.028,0.034c-1.072,1.458 -2.156,2.927 -3.212,4.413c-0.536,0.76 -1.056,1.519 -1.603,2.279c-24.459,35.262 -39.239,77.741 -40.529,123.593l0.045,0c-0.017,0.681 -0.034,1.38 -0.045,2.067c1.084,28.263 24.32,50.829 52.84,50.829c14.595,0 27.833,-5.915 37.407,-15.489c9.574,-9.579 15.489,-22.795 15.489,-37.407l0,6.524c0,-67.882 55.024,-122.912 122.912,-122.923c33.944,0 64.687,13.752 86.929,35.994c22.242,22.253 36.011,52.974 36.011,86.929l0,0.017c0,67.882 -55.041,122.923 -122.923,122.923l-203.021,0c-14.182,0 -25.688,11.506 -25.688,25.711l0,54.382c0,14.199 11.506,25.705 25.688,25.705l203.021,0c126.313,0 228.72,-102.39 228.72,-228.72l0,-0.017Z" style="fill:#32716d;fill-rule:nonzero;"/></g><g><path d="M1642.321,23.427l-54.387,0c-14.199,0 -25.705,11.506 -25.705,25.705l0,161.212c43.462,22.315 80.048,56.108 105.797,97.369l0,-258.581c0,-14.199 -11.506,-25.705 -25.705,-25.705" style="fill:#32716d;fill-rule:nonzero;"/></g><g><path d="M1642.321,573.039l-203.015,0c-67.888,0 -122.928,-55.041 -122.928,-122.923l0,-0.017c0,-33.961 13.769,-64.676 36.011,-86.929c22.259,-22.242 52.991,-35.994 86.929,-35.994c67.888,0.011 122.912,55.035 122.912,122.923l0,-6.524c0,14.612 5.915,27.828 15.495,37.401c9.574,9.579 22.806,15.495 37.407,15.495c28.515,0 51.768,-22.572 52.851,-50.835c-0.011,-0.681 -0.028,-1.38 -0.045,-2.061l0.034,0c-0.938,-33.279 -8.998,-64.782 -22.689,-93.045c-3.167,-6.524 -6.619,-12.875 -10.361,-19.03c-1.894,-3.139 -3.871,-6.217 -5.921,-9.244c-2.067,-3.05 -4.206,-6.055 -6.407,-8.998c-1.084,-1.458 -2.184,-2.916 -3.318,-4.34c-0.575,-0.732 -1.156,-1.441 -1.737,-2.173c-1.128,-1.424 -2.29,-2.826 -3.463,-4.206l-0.034,-0.028c-3.106,-3.675 -6.317,-7.239 -9.646,-10.708c-1.117,-1.156 -2.234,-2.301 -3.363,-3.435l-12.668,-11.741c-0.977,-0.849 -1.961,-1.681 -2.955,-2.514l-1.1,-0.91c-1.234,-1.011 -2.486,-2.022 -3.748,-2.999l-2.525,-1.966c-1.341,-1.022 -2.692,-2.022 -4.05,-3.016l-2.229,-1.603c-2.245,-1.609 -4.519,-3.167 -6.826,-4.67l-2.703,-1.754l-1.961,-1.251c-3.106,-1.949 -6.261,-3.804 -9.473,-5.591c-0.011,-0.011 -0.028,-0.028 -0.045,-0.028c-2.05,-1.145 -4.133,-2.273 -6.228,-3.363c-4.195,-2.184 -8.473,-4.234 -12.813,-6.139c0,0 0,-0.017 -0.017,-0.017c-2.156,-0.966 -4.357,-1.888 -6.558,-2.765c0,0 0,-0.011 -0.017,-0.011c-26.493,-10.736 -55.454,-16.656 -85.801,-16.656c-126.313,0 -228.737,102.396 -228.737,228.726l0,0.017c0,126.33 102.407,228.72 228.726,228.72l203.015,0c14.199,0 25.705,-11.506 25.705,-25.705l0,-54.387c0,-14.199 -11.506,-25.705 -25.705,-25.705" style="fill:#32716d;fill-rule:nonzero;"/></g><g><path d="M631.404,573.197l0,-291.737c0,-14.143 -11.478,-25.683 -25.683,-25.683l-54.398,0c-14.204,0 -25.677,11.54 -25.677,25.683l0,172.518l0.061,82.561l0,10.981c0,14.204 -11.478,25.677 -25.683,25.677c-14.578,0 -27.788,5.893 -37.34,15.444c-9.551,9.551 -15.444,22.767 -15.444,37.345c0,14.634 5.893,27.788 15.444,37.401c9.551,9.551 22.761,15.444 37.34,15.444l25.806,0c10.914,0 21.46,-1.676 31.386,-4.776c3.29,-1.056 6.513,-2.234 9.68,-3.536c5.58,-2.357 10.914,-5.15 15.941,-8.434c6.323,-4.033 12.277,-8.809 17.611,-14.204c1.988,-1.988 3.91,-4.033 5.709,-6.206c0.933,-1.056 1.799,-2.173 2.67,-3.284c1.737,-2.173 3.407,-4.469 4.96,-6.826c0.804,-1.179 1.553,-2.357 2.296,-3.597c1.424,-2.419 2.793,-4.899 4.094,-7.446c1.86,-3.536 3.407,-7.256 4.837,-11.043c2.357,-6.446 4.094,-13.21 5.15,-20.22c0.804,-5.211 1.24,-10.607 1.24,-16.064" style="fill:#32716d;fill-rule:nonzero;"/></g><g><path d="M578.525,221.369c40.63,0 73.574,-32.938 73.574,-73.574c0,-40.63 -32.944,-73.568 -73.574,-73.568c-40.63,0 -73.574,32.938 -73.574,73.568c0,40.635 32.944,73.574 73.574,73.574" style="fill:#fbba3b;fill-rule:nonzero;"/></g><g><path d="M1193.8,573.036l-14.461,0l0,0.162c-13.875,0 -25.068,-10.97 -25.582,-24.716l0,-101.887c-0.933,-62.336 -26.861,-118.661 -68.173,-159.352c-41.311,-40.753 -98.005,-65.877 -160.592,-65.877c-63.145,0 -120.275,25.621 -161.709,66.994c-40.63,40.63 -66,96.458 -66.927,158.235l0.056,87.275l0,13.646l0.006,0c0,14.21 -11.478,25.683 -25.683,25.683l0,0.123c0,41.563 -17.494,79.087 -45.528,105.512l71.211,0c29.213,0 55.638,-11.786 74.741,-30.95c19.108,-19.108 30.956,-45.473 30.956,-74.685l0,-124.124c0.559,-67.424 55.393,-121.884 122.878,-121.884c33.994,0 64.698,13.769 86.963,35.977c22.208,22.27 35.977,52.974 35.977,86.963l0,105.954c0,0.089 0.028,0.179 0.028,0.268l0,16.846c0,5.457 0.436,10.853 1.246,16.064c1.05,7.01 2.787,13.774 5.15,20.22c1.424,3.787 2.977,7.507 4.837,11.043c1.301,2.541 2.664,5.027 4.094,7.446c0.743,1.24 1.486,2.419 2.29,3.597c1.553,2.357 3.228,4.653 4.966,6.82c0.866,1.117 1.737,2.234 2.664,3.29c1.799,2.173 3.726,4.217 5.709,6.206c5.334,5.396 11.289,10.171 17.617,14.204c5.021,3.284 10.356,6.077 15.941,8.434c3.161,1.301 6.39,2.48 9.674,3.536c9.926,3.1 20.471,4.776 31.386,4.776l40.267,0c14.199,0 25.705,-11.506 25.705,-25.705l0,-54.387c0,-14.193 -11.506,-25.705 -25.705,-25.705" style="fill:#32716d;fill-rule:nonzero;"/></g></svg>