<?xml version="1.0" encoding="UTF-8" standalone="no"?><!DOCTYPE svg PUBLIC "-//W3C//DTD SVG 1.1//EN" "http://www.w3.org/Graphics/SVG/1.1/DTD/svg11.dtd"><svg width="100%" height="100%" viewBox="0 0 942 959" version="1.1" xmlns="http://www.w3.org/2000/svg" xmlns:xlink="http://www.w3.org/1999/xlink" xml:space="preserve" xmlns:serif="http://www.serif.com/" style="fill-rule:evenodd;clip-rule:evenodd;stroke-linejoin:round;stroke-miterlimit:2;"><rect id="Artboard1" x="0" y="0" width="941.667" height="958.333" style="fill:none;"/><clipPath id="_clip1"><rect x="0" y="0" width="941.667" height="958.333"/></clipPath><g clip-path="url(#_clip1)"><g><path d="M436.567,1268.962c-429.808,0 -778.233,-348.425 -778.233,-778.229l0,-0.004c0,-429.804 348.425,-778.229 778.233,-778.229c429.804,0 778.233,348.425 778.233,778.229l0,0.004c0,429.804 -348.429,778.229 -778.233,778.229" style="fill:#32716d;fill-rule:nonzero;"/></g><g><path d="M292.179,282.238l0,-220.562c0,-19.425 -15.746,-35.167 -35.15,-35.167l-74.429,0c-19.404,0 -35.15,15.742 -35.15,35.167l0,353.779c35.213,-56.45 85.271,-102.683 144.729,-133.217" style="fill:#f5edd9;fill-rule:nonzero;"/></g><g><path d="M460.342,297.333c-55.35,0 -107.342,14.383 -152.458,39.604c-0.021,0 -0.042,0.021 -0.062,0.042c-4.371,2.442 -8.683,4.983 -12.933,7.646l-2.708,1.708l-3.7,2.404c-3.154,2.075 -6.267,4.188 -9.337,6.388l-40.054,33.867c-7.971,7.954 -15.5,16.354 -22.579,25.142c-0.792,0.996 -1.567,1.975 -2.379,2.971c-1.525,1.95 -3.029,3.946 -4.533,5.937c0,0 -0.021,0.021 -0.042,0.042c-1.467,1.996 -2.95,4.008 -4.396,6.042c-0.729,1.037 -1.442,2.075 -2.196,3.113c-33.463,48.25 -53.679,106.363 -55.45,169.096l0.062,0c-0.021,0.938 -0.042,1.892 -0.062,2.829c1.483,38.667 33.279,69.546 72.292,69.546c19.975,0 38.079,-8.096 51.179,-21.196c13.1,-13.1 21.196,-31.183 21.196,-51.179l0,8.929c0,-92.875 75.283,-168.158 168.162,-168.179c46.438,0 88.504,18.812 118.933,49.246c30.433,30.45 49.271,72.475 49.271,118.933l0,0.021c0,92.879 -75.304,168.183 -168.183,168.183l-277.762,0c-19.404,0 -35.15,15.742 -35.15,35.171l0,74.408c0,19.425 15.746,35.171 35.15,35.171l277.762,0c172.817,0 312.929,-140.092 312.929,-312.933l0,-0.021c0,-172.837 -140.129,-312.929 -312.95,-312.929" style="fill:#f5edd9;fill-rule:nonzero;"/></g><g><path d="M667.275,222.64c55.592,0 100.658,-45.067 100.658,-100.658c0,-55.592 -45.067,-100.658 -100.658,-100.658c-55.592,0 -100.658,45.067 -100.658,100.658c0,55.592 45.067,100.658 100.658,100.658" style="fill:#fbba3b;fill-rule:nonzero;"/></g></g></svg>